<?xml version="1.0" encoding="utf-8"?>
<!-- Generator: Adobe Illustrator 18.0.0, SVG Export Plug-In . SVG Version: 6.00 Build 0)  -->
<!DOCTYPE svg PUBLIC "-//W3C//DTD SVG 1.1 Basic//EN" "http://www.w3.org/Graphics/SVG/1.1/DTD/svg11-basic.dtd">
<svg version="1.1" baseProfile="basic" id="Layer_1"
	 xmlns="http://www.w3.org/2000/svg" xmlns:xlink="http://www.w3.org/1999/xlink" x="0px" y="0px" viewBox="0 0 612 792"
	 xml:space="preserve">
<path d="M607.5,184.9c11.6,43,0.6,90.8-33.1,124.6c-35.5,35.4-86.4,45.8-131,31.3L250.8,533.4c14.6,44.6,4.2,95.5-31.2,131
	c-33.8,33.7-81.6,44.8-124.6,33.2l70.4-78.2v-82.7H82.7L4.5,607.1c-11.6-43-0.6-90.8,33.2-124.6c34-33.9,82.2-44.9,125.3-33
	L359.5,253c-12-43.2-1-91.4,32.9-125.3c33.8-33.7,81.6-44.8,124.6-33.2l-62.4,70.1v82.7h82.7L607.5,184.9z"/>
</svg>
